<svg width="16" height="23" viewBox="0 0 16 23" fill="none" xmlns="http://www.w3.org/2000/svg">
<path d="M14.5 18.9502C14.6459 18.9502 14.7855 19.0082 14.8887 19.1113C14.9918 19.2145 15.0498 19.3541 15.0498 19.5C15.0498 19.6459 14.9918 19.7855 14.8887 19.8887C14.7855 19.9918 14.6459 20.0498 14.5 20.0498H1.5C1.35413 20.0498 1.21447 19.9918 1.11133 19.8887C1.00818 19.7855 0.950195 19.6459 0.950195 19.5C0.950195 19.3541 1.00818 19.2145 1.11133 19.1113C1.21447 19.0082 1.35413 18.9502 1.5 18.9502H14.5ZM8 5.9502C8.14587 5.9502 8.28553 6.00818 8.38867 6.11133C8.49182 6.21447 8.5498 6.35413 8.5498 6.5V15.6738L11.6094 12.6094C11.7129 12.5058 11.8536 12.4482 12 12.4482C12.1464 12.4482 12.2871 12.5058 12.3906 12.6094C12.4942 12.7129 12.5518 12.8536 12.5518 13C12.5518 13.1464 12.4942 13.2871 12.3906 13.3906L8.39062 17.3906C8.3396 17.442 8.27876 17.4828 8.21191 17.5107C8.14489 17.5387 8.07261 17.5527 8 17.5527C7.92739 17.5527 7.85511 17.5387 7.78809 17.5107C7.72124 17.4828 7.6604 17.442 7.60938 17.3906L3.60938 13.3906C3.50585 13.2871 3.44824 13.1464 3.44824 13C3.44824 12.9276 3.46254 12.856 3.49023 12.7891C3.51798 12.7221 3.55811 12.6606 3.60938 12.6094C3.66064 12.5581 3.72209 12.518 3.78906 12.4902C3.85599 12.4625 3.92757 12.4482 4 12.4482C4.07243 12.4482 4.14401 12.4625 4.21094 12.4902C4.27791 12.518 4.33936 12.5581 4.39062 12.6094L7.4502 15.6738V6.5C7.4502 6.35413 7.50818 6.21447 7.61133 6.11133C7.71447 6.00818 7.85413 5.9502 8 5.9502Z" fill="#333333" stroke="#333333" stroke-width="0.1"/>
</svg>
