<svg width="16" height="16" viewBox="0 0 16 16" fill="none" xmlns="http://www.w3.org/2000/svg">
<g clip-path="url(#clip0_91_32)">
<path d="M6.54199 0.900391C9.65251 0.900606 12.1836 3.43143 12.1836 6.54199C12.1835 7.95726 11.6538 9.24666 10.791 10.2373L14.9854 14.4307V14.4316C15.1187 14.5658 15.1361 14.7717 15.0361 14.9238L14.9854 14.9854C14.9089 15.0611 14.8082 15.0996 14.708 15.0996C14.6078 15.0996 14.5072 15.0609 14.4307 14.9844L10.2363 10.79C9.24569 11.6532 7.95707 12.1835 6.54199 12.1836C3.43142 12.1836 0.900592 9.65252 0.900391 6.54199C0.900391 3.43129 3.43129 0.900391 6.54199 0.900391ZM6.54199 1.68359C3.86315 1.68359 1.68359 3.86317 1.68359 6.54199C1.68378 9.22065 3.86329 11.4004 6.54199 11.4004C9.22052 11.4002 11.3992 9.22052 11.3994 6.54199C11.3994 3.8633 9.22067 1.68379 6.54199 1.68359Z" fill="currentColor" stroke="currentColor" stroke-width="0.2"/>
</g>
<defs>
<clipPath id="clip0_91_32">
<rect width="16" height="16" fill="white"/>
</clipPath>
</defs>
</svg>
