<svg width="20" height="20" viewBox="0 0 20 20" fill="none" xmlns="http://www.w3.org/2000/svg">
<path d="M10 1C5.0372 1 1 5.0372 1 10C1 14.9628 5.0372 19 10 19C14.9628 19 19 14.9628 19 10C19 5.0372 14.9628 1 10 1Z" fill="#336FEE"/>
<path d="M14.7487 14.7829C14.5815 14.9273 14.3621 15 14.1427 15C13.9233 15 13.7038 14.9273 13.5368 14.7829L9.25111 11.0792C9.08993 10.9408 9 10.7525 9 10.5556V5.7407C9 5.33108 9.38388 5 9.85707 5C10.3303 5 10.7141 5.33108 10.7141 5.7407V10.2489L14.7487 13.7355C15.0838 14.0252 15.0838 14.4933 14.7487 14.7829Z" fill="white"/>
</svg>
