<svg width="16" height="21" viewBox="0 0 16 21" fill="none" xmlns="http://www.w3.org/2000/svg">
<path d="M8 3.5C3.58862 3.5 0 7.08862 0 11.5C0 15.9114 3.58862 19.5 8 19.5C12.4114 19.5 16 15.9114 16 11.5C16 7.08862 12.4114 3.5 8 3.5Z" fill="#336FEE"/>
<path d="M11.8048 15.6379C11.6748 15.7679 11.5042 15.8334 11.3335 15.8334C11.1628 15.8334 10.9921 15.7679 10.8622 15.6379L7.52881 12.3047C7.40344 12.1801 7.3335 12.0106 7.3335 11.8334V7.5C7.3335 7.13135 7.63208 6.83337 8.00012 6.83337C8.36816 6.83337 8.66675 7.13135 8.66675 7.5V11.5574L11.8048 14.6953C12.0654 14.9561 12.0654 15.3773 11.8048 15.6379Z" fill="white"/>
</svg>
