<svg width="16" height="16" viewBox="0 0 16 16" fill="none" xmlns="http://www.w3.org/2000/svg">
<path d="M14.4167 5.69H1.5833C1.26137 5.69 1 5.95137 1 6.2733V13.25C1 14.2148 1.78517 15 2.75 15H13.25C14.2148 15 15 14.2148 15 13.25V6.2733C15 5.95137 14.7386 5.69 14.4167 5.69Z" fill="#336FEE"/>
<path d="M13.25 2.75H2.75C1.78346 2.75 1 3.53346 1 4.5V6.27328H15V4.5C15 3.53346 14.2165 2.75 13.25 2.75Z" fill="#A8C1F8"/>
<path d="M4.49995 1H3.91666C3.59462 1 3.33325 1.26137 3.33325 1.5833V3.9167C3.33325 4.23863 3.59462 4.5 3.91666 4.5H4.49995C4.82199 4.5 5.08325 4.23863 5.08325 3.9167V1.5833C5.08325 1.26137 4.82199 1 4.49995 1Z" fill="#336FEE"/>
<path d="M12.0831 1H11.4998C11.1778 1 10.9165 1.26137 10.9165 1.5833V3.9167C10.9165 4.23863 11.1778 4.5 11.4998 4.5H12.0831C12.4051 4.5 12.6665 4.23863 12.6665 3.9167V1.5833C12.6665 1.26137 12.4051 1 12.0831 1Z" fill="#336FEE"/>
</svg>
