<svg width="16" height="21" viewBox="0 0 16 21" fill="none" xmlns="http://www.w3.org/2000/svg">
<path d="M8.00002 14.1666C7.86335 14.1666 7.73268 14.1106 7.63868 14.012L4.13868 10.3453C3.83468 10.0273 4.06068 9.49998 4.50001 9.49998H6.33335V5.66665C6.33335 5.20731 6.70735 4.83331 7.16668 4.83331H8.83335C9.29268 4.83331 9.66668 5.20731 9.66668 5.66665V9.49998H11.5C11.9393 9.49998 12.1653 10.0273 11.8613 10.3453L8.36135 14.012C8.26735 14.1106 8.13668 14.1666 8.00002 14.1666Z" fill="#949495"/>
<path d="M14.8333 18.1667H1.16667C0.523333 18.1667 0 17.6433 0 17V16.6667C0 16.0233 0.523333 15.5 1.16667 15.5H14.8333C15.4767 15.5 16 16.0233 16 16.6667V17C16 17.6433 15.4767 18.1667 14.8333 18.1667Z" fill="#949495"/>
</svg>
