<svg width="14" height="14" viewBox="0 0 14 14" fill="none" xmlns="http://www.w3.org/2000/svg">
<path d="M12.0664 1.3916C12.2095 1.39166 12.347 1.44863 12.4482 1.5498C12.5494 1.65099 12.6064 1.78855 12.6064 1.93164C12.6064 2.07472 12.5493 2.21224 12.4482 2.31348L7.76367 7L12.4502 11.6846C12.5513 11.7858 12.6084 11.9233 12.6084 12.0664C12.6083 12.2095 12.5514 12.3471 12.4502 12.4482C12.349 12.5494 12.2115 12.6064 12.0684 12.6064C11.9253 12.6064 11.7878 12.5493 11.6865 12.4482L7 7.7627L2.31543 12.4473C2.2653 12.4975 2.20615 12.5383 2.14062 12.5654C2.07516 12.5925 2.00444 12.6064 1.93359 12.6064C1.86293 12.6064 1.79284 12.5924 1.72754 12.5654C1.66202 12.5383 1.60189 12.4984 1.55176 12.4482V12.4473C1.45144 12.3462 1.39462 12.2098 1.39453 12.0674C1.39453 11.9248 1.45127 11.7876 1.55176 11.6865L6.23633 7L1.55176 2.31348L1.54395 2.30566C1.45556 2.20246 1.40985 2.06937 1.41504 1.93359C1.42029 1.79777 1.47617 1.66839 1.57227 1.57227C1.6684 1.47613 1.79775 1.42029 1.93359 1.41504C2.03545 1.41112 2.1354 1.43628 2.22266 1.48633L2.30566 1.54395L2.31445 1.55176H2.31348L6.99902 6.23633L11.6846 1.5498C11.7858 1.44872 11.9233 1.3916 12.0664 1.3916Z" fill="#333333" stroke="#333333" stroke-width="0.3"/>
</svg>
