<svg width="16" height="23" viewBox="0 0 16 23" fill="none" xmlns="http://www.w3.org/2000/svg">
<path d="M7.82343 6.37843C7.91791 6.28413 8.04625 6.23204 8.17975 6.23204C8.31325 6.23205 8.4416 6.28412 8.53606 6.37843C8.63057 6.47294 8.68315 6.60179 8.68315 6.73544L8.68453 12.7348L14.6839 12.7334C14.8175 12.7334 14.9457 12.7868 15.0402 12.8812C15.1347 12.9757 15.188 13.1039 15.188 13.2375C15.1879 13.3711 15.1347 13.4993 15.0402 13.5938C14.9457 13.6882 14.8174 13.7416 14.6839 13.7416L8.68384 13.7423V19.7403C8.68388 19.8065 8.67187 19.8724 8.64655 19.9336C8.62128 19.9946 8.58409 20.0499 8.53745 20.0966C8.49064 20.1434 8.43495 20.1811 8.37379 20.2064C8.31271 20.2316 8.24723 20.2444 8.18113 20.2444L8.18044 20.245C8.04739 20.2446 7.91959 20.1914 7.8255 20.0973C7.73143 20.0032 7.67813 19.8754 7.67773 19.7423L7.67842 19.7416L7.67635 13.743L1.67768 13.7409L1.66594 13.7416V13.7402C1.53954 13.7304 1.42131 13.6738 1.33518 13.5807C1.24907 13.4876 1.20121 13.365 1.20121 13.2382C1.20132 13.1115 1.24978 12.9894 1.33587 12.8964C1.40049 12.8267 1.48287 12.7773 1.57341 12.7528L1.66594 12.7362L1.67768 12.7355L7.67635 12.7348V6.73544C7.67635 6.60179 7.72893 6.47294 7.82343 6.37843Z" fill="#949495" stroke="#949495" stroke-width="0.3"/>
</svg>
