<svg width="20" height="20" viewBox="0 0 20 20" fill="none" xmlns="http://www.w3.org/2000/svg">
<path d="M18.0209 7.11249H1.97912C1.57671 7.11249 1.25 7.4392 1.25 7.84161V16.5625C1.25 17.7685 2.23146 18.75 3.4375 18.75H16.5625C17.7685 18.75 18.75 17.7685 18.75 16.5625V7.84161C18.75 7.4392 18.4233 7.11249 18.0209 7.11249Z" fill="#336FEE"/>
<path d="M16.5625 3.4375H3.4375C2.22933 3.4375 1.25 4.41683 1.25 5.625V7.84161H18.75V5.625C18.75 4.41683 17.7707 3.4375 16.5625 3.4375Z" fill="#A8C1F8"/>
<path d="M5.62488 1.25H4.89576C4.49321 1.25 4.1665 1.57671 4.1665 1.97912V4.89588C4.1665 5.29829 4.49321 5.625 4.89576 5.625H5.62488C6.02743 5.625 6.354 5.29829 6.354 4.89588V1.97912C6.354 1.57671 6.02743 1.25 5.62488 1.25Z" fill="#336FEE"/>
<path d="M15.104 1.25H14.3749C13.9723 1.25 13.6458 1.57671 13.6458 1.97912V4.89588C13.6458 5.29829 13.9723 5.625 14.3749 5.625H15.104C15.5065 5.625 15.8333 5.29829 15.8333 4.89588V1.97912C15.8333 1.57671 15.5065 1.25 15.104 1.25Z" fill="#336FEE"/>
</svg>
