<svg width="20" height="24" viewBox="0 0 20 24" fill="none" xmlns="http://www.w3.org/2000/svg">
<g clip-path="url(#clip0_305_388)">
<path d="M9.55526 2C4.28628 2 0 6.48578 0 12C0 17.5142 4.28628 22 9.55526 22C14.8242 22 19.1105 17.5142 19.1105 12C19.1105 6.48578 14.8242 2 9.55526 2Z" fill="#E2E3E4"/>
<path d="M13.0742 14.5041C13.3855 14.8301 13.3855 15.3566 13.0742 15.6826C12.919 15.8451 12.7151 15.9267 12.5112 15.9267C12.3073 15.9267 12.1035 15.8451 11.9482 15.6826L9.55546 13.1783L7.16271 15.6826C7.00743 15.8451 6.8036 15.9267 6.59977 15.9267C6.3958 15.9267 6.19197 15.8451 6.03669 15.6826C5.7254 15.3566 5.7254 14.8301 6.03669 14.5041L8.42958 12L6.03669 9.49589C5.7254 9.16996 5.7254 8.64338 6.03669 8.31745C6.34812 7.99168 6.85128 7.99168 7.16271 8.31745L9.55546 10.8217L11.9482 8.31745C12.2596 7.99168 12.7628 7.99168 13.0742 8.31745C13.3855 8.64338 13.3855 9.16996 13.0742 9.49589L10.6813 12L13.0742 14.5041Z" fill="#FAFAFA"/>
</g>
<defs>
<clipPath id="clip0_305_388">
<rect width="19.1105" height="24" fill="white"/>
</clipPath>
</defs>
</svg>
