<svg width="16" height="23" viewBox="0 0 16 23" fill="none" xmlns="http://www.w3.org/2000/svg">
<path d="M7.82392 6.37843C7.91839 6.28413 8.04674 6.23204 8.18024 6.23204C8.31374 6.23205 8.44208 6.28412 8.53655 6.37843C8.63106 6.47294 8.68364 6.60179 8.68364 6.73544L8.68502 12.7348L14.6844 12.7334C14.818 12.7334 14.9462 12.7868 15.0407 12.8812C15.1352 12.9757 15.1885 13.1039 15.1885 13.2375C15.1884 13.3711 15.1352 13.4993 15.0407 13.5938C14.9462 13.6882 14.8179 13.7416 14.6844 13.7416L8.68433 13.7423V19.7403C8.68436 19.8065 8.67235 19.8724 8.64704 19.9336C8.62177 19.9946 8.58458 20.0499 8.53793 20.0966C8.49112 20.1434 8.43544 20.1811 8.37428 20.2064C8.3132 20.2316 8.24772 20.2444 8.18162 20.2444L8.18093 20.245C8.04788 20.2446 7.92008 20.1914 7.82599 20.0973C7.73192 20.0032 7.67861 19.8754 7.67822 19.7423L7.67891 19.7416L7.67684 13.743L1.67817 13.7409L1.66643 13.7416V13.7402C1.54002 13.7304 1.42179 13.6738 1.33566 13.5807C1.24955 13.4876 1.2017 13.365 1.2017 13.2382C1.20181 13.1115 1.25027 12.9894 1.33635 12.8964C1.40098 12.8267 1.48335 12.7773 1.5739 12.7528L1.66643 12.7362L1.67817 12.7355L7.67684 12.7348V6.73544C7.67684 6.60179 7.72942 6.47294 7.82392 6.37843Z" fill="#333333" stroke="#333333" stroke-width="0.3"/>
</svg>
