<svg width="83" height="30" viewBox="0 0 83 30" fill="none" xmlns="http://www.w3.org/2000/svg">
<path d="M41.3227 13.8666C40.75 13.6441 40.0009 13.5774 39.1858 13.5774H34.6472V12.1534H42.4464V9.70593H31.4526V20.2969H38.8994C39.9349 20.2969 40.7057 20.208 41.2788 19.9853C42.4905 19.5181 43.3056 18.3833 43.3056 16.8926C43.3056 15.3797 42.5345 14.3339 41.3227 13.8666ZM39.7365 17.5379C39.5603 17.6047 39.318 17.6268 39.0094 17.6268H34.6472V15.9358H39.0094C39.362 15.9358 39.6483 15.9582 39.8687 16.0694C40.133 16.2029 40.2653 16.4476 40.2653 16.759C40.2653 17.0706 40.1111 17.4044 39.7365 17.5379Z" fill="#333333"/>
<path d="M52.2628 9.70593H47.5922L43.296 20.2969H46.9092L47.504 18.7616H52.3509L52.9679 20.2969H56.5591L52.2628 9.70593ZM48.2971 16.4253L49.8175 12.1534H50.0597L51.5799 16.4253H48.2971Z" fill="#333333"/>
<path d="M60.6707 16.3588V20.297H57.4763V9.70593H60.6707V13.5775H65.8041V9.70593H68.9987V20.297H65.8041V16.3588H60.6707Z" fill="#333333"/>
<path d="M74.0552 16.2921V20.297H70.8606V9.70593H74.0552V13.6888H74.9364L78.792 9.70593H82.8015L77.6903 14.7789L82.9999 20.297H78.7478L74.9364 16.2921H74.0552Z" fill="#333333"/>
<path d="M0 3.52942H25.3368V15.5161C25.3368 18.8151 23.5942 21.8637 20.7654 23.5134L12.6685 28.2353L4.57152 23.5134C1.74262 21.8637 2.90393e-06 18.8151 2.90393e-06 15.5161L0 3.52942Z" fill="#FFDD2D"/>
<path fill-rule="evenodd" clip-rule="evenodd" d="M6.98947 9.70593V13.6833C7.52801 13.0691 8.50719 12.6535 9.62678 12.6535H10.8434V17.2771C10.8434 18.5072 10.5124 19.7117 10.0214 20.304H15.3136C14.8236 19.7111 14.4935 18.5081 14.4935 17.2795V12.6535H15.7102C16.8297 12.6535 17.8088 13.0691 18.3474 13.6833V9.70593H6.98947Z" fill="#333333"/>
</svg>
