<svg width="18" height="21" viewBox="0 0 18 21" fill="none" xmlns="http://www.w3.org/2000/svg">
<g clip-path="url(#clip0_119_623)">
<path d="M17.8144 11.2569C16.351 7.78904 12.891 5.5481 8.99971 5.5481C6.82299 5.5481 4.7821 6.25042 3.14911 7.47438L6.4247 10.6925C6.94673 9.82368 7.90002 9.23268 8.99971 9.23268C10.6544 9.23268 11.9999 10.5547 11.9999 12.1803C11.9999 13.2607 11.3984 14.1972 10.514 14.7101L13.5548 17.6975C15.442 16.7094 16.9654 15.1154 17.8137 13.1029C18.062 12.5171 18.062 11.8435 17.8144 11.2569Z" fill="#949495"/>
<path d="M9.31617 15.0963C9.21124 15.1074 9.10851 15.128 8.99973 15.128C7.34505 15.128 5.99938 13.806 5.99938 12.1803C5.99938 12.0734 6.02039 11.9725 6.03165 11.8694L2.2994 8.20251C1.40833 9.05582 0.680011 10.0839 0.18572 11.257C-0.0619066 11.8435 -0.0619066 12.5164 0.18572 13.1036C1.64827 16.5715 5.10831 18.8125 8.99973 18.8125C10.2126 18.8125 11.3834 18.5944 12.465 18.1898L9.31617 15.0963Z" fill="#949495"/>
<path d="M16.5003 20.2863C16.3083 20.2863 16.1163 20.2141 15.9701 20.0704L0.968697 5.3322C0.675473 5.04412 0.675473 4.57834 0.968697 4.29026C1.26206 4.00204 1.73602 4.00204 2.02938 4.29026L17.0306 19.0283C17.324 19.3165 17.324 19.7822 17.0306 20.0704C16.8844 20.2141 16.6924 20.2863 16.5003 20.2863Z" fill="#BABBBC"/>
</g>
<defs>
<clipPath id="clip0_119_623">
<rect width="18" height="21" fill="white"/>
</clipPath>
</defs>
</svg>
