<svg width="18" height="21" viewBox="0 0 18 21" fill="none" xmlns="http://www.w3.org/2000/svg">
<path d="M10.6875 5.52631H2.0625C0.9225 5.52631 0 6.43262 0 7.55262V16.7631C0 17.8831 0.9225 18.7895 2.0625 18.7895H7.5975L7.7625 17.8831C7.83825 17.4705 8.0325 17.1021 8.33325 16.8L9.30825 15.8421H2.8125C2.505 15.8421 2.25 15.5916 2.25 15.2895C2.25 14.9874 2.505 14.7368 2.8125 14.7368H9.9375C10.0725 14.7368 10.2 14.7884 10.2975 14.8695L12.75 12.4674V7.55262C12.75 6.43262 11.8275 5.52631 10.6875 5.52631ZM9.9375 13.4474H2.8125C2.505 13.4474 2.25 13.1968 2.25 12.8947C2.25 12.5926 2.505 12.3421 2.8125 12.3421H9.9375C10.245 12.3421 10.5 12.5926 10.5 12.8947C10.5 13.1968 10.245 13.4474 9.9375 13.4474ZM9.9375 11.0526H2.8125C2.505 11.0526 2.25 10.8021 2.25 10.5C2.25 10.1979 2.505 9.94736 2.8125 9.94736H9.9375C10.245 9.94736 10.5 10.1979 10.5 10.5C10.5 10.8021 10.245 11.0526 9.9375 11.0526Z" fill="#336FEE"/>
<path d="M9.1875 4.78948H8.3625C8.115 3.94211 7.32 3.3158 6.375 3.3158C5.43 3.3158 4.635 3.94211 4.3875 4.78948H3.5625C3.255 4.78948 3 5.04001 3 5.34211V6.8158C3 7.52316 3.5925 8.10527 4.3125 8.10527H8.4375C9.1575 8.10527 9.75 7.52316 9.75 6.8158V5.34211C9.75 5.04001 9.495 4.78948 9.1875 4.78948Z" fill="#A8C1F8"/>
<path d="M10.5 10.5C10.5 10.8021 10.245 11.0527 9.9375 11.0527H2.8125C2.505 11.0527 2.25 10.8021 2.25 10.5C2.25 10.1979 2.505 9.94739 2.8125 9.94739H9.9375C10.245 9.94739 10.5 10.1979 10.5 10.5Z" fill="white"/>
<path d="M10.5 12.8947C10.5 13.1968 10.245 13.4474 9.9375 13.4474H2.8125C2.505 13.4474 2.25 13.1968 2.25 12.8947C2.25 12.5926 2.505 12.3421 2.8125 12.3421H9.9375C10.245 12.3421 10.5 12.5926 10.5 12.8947Z" fill="white"/>
<path d="M10.2975 14.8695L9.3075 15.8421H2.8125C2.505 15.8421 2.25 15.5916 2.25 15.2895C2.25 14.9874 2.505 14.7369 2.8125 14.7369H9.9375C10.0725 14.7369 10.2 14.7885 10.2975 14.8695Z" fill="white"/>
<path d="M9.39528 21C9.24753 21 9.10353 20.9425 8.99778 20.8379C8.86803 20.7104 8.80953 20.5292 8.84178 20.3508L9.23928 18.1366C9.25878 18.0254 9.31428 17.9222 9.39528 17.8426L14.964 12.3716C15.648 11.6988 16.32 11.8801 16.6875 12.2412L17.6153 13.1526C18.1275 13.6559 18.1275 14.473 17.6153 14.9763L12.0465 20.4474C11.9655 20.5277 11.8605 20.5815 11.7465 20.6014L9.49278 20.9912L9.39528 21Z" fill="#336FEE"/>
<path d="M15.9225 11.9184C15.6285 11.9184 15.2978 12.0437 14.964 12.3716L9.39528 17.8426C9.31428 17.9222 9.25878 18.0253 9.23928 18.1366L8.84178 20.3508C8.80953 20.5291 8.86803 20.7104 8.99778 20.8379C9.00378 20.8438 9.00903 20.8489 9.01503 20.8541L17.2343 12.7783L16.6868 12.2404C16.4993 12.0562 16.2308 11.9184 15.9225 11.9184Z" fill="#336FEE"/>
</svg>
