<svg width="18" height="21" viewBox="0 0 18 21" fill="none" xmlns="http://www.w3.org/2000/svg">
<path d="M9 1.89474C4.0372 1.89474 0 6.04999 0 11.1579C0 16.2658 4.0372 20.4211 9 20.4211C13.9628 20.4211 18 16.2658 18 11.1579C18 6.04999 13.9628 1.89474 9 1.89474Z" fill="#4BAE4F"/>
<path d="M13.5615 9.19491L8.68648 14.2124C8.54022 14.3629 8.34824 14.4387 8.15625 14.4387C7.96426 14.4387 7.77228 14.3629 7.62602 14.2124L5.18857 11.7036C4.89523 11.4019 4.89523 10.9139 5.18857 10.6122C5.48177 10.3103 5.95569 10.3103 6.24902 10.6122L8.15625 12.5752L12.5011 8.10345C12.7943 7.80154 13.2682 7.80154 13.5615 8.10345C13.8547 8.40522 13.8547 8.893 13.5615 9.19491Z" fill="white"/>
</svg>
