<svg width="332" height="200" viewBox="0 0 332 200" fill="none" xmlns="http://www.w3.org/2000/svg">
<rect width="332" height="200" rx="8" fill="#F6F7F8"/>
<g clip-path="url(#clip0_22_800)">
<path d="M156.416 110.885C153.748 110.885 151.374 109.177 150.512 106.633L150.454 106.442C150.251 105.768 150.166 105.202 150.166 104.635V93.2713L146.122 106.768C145.602 108.754 146.787 110.812 148.776 111.36L174.548 118.262C174.87 118.345 175.191 118.385 175.508 118.385C177.168 118.385 178.685 117.284 179.11 115.66L180.611 110.885H156.416Z" fill="#E2E3E4"/>
<path d="M186 85.4678V104.635C186 106.702 184.317 108.385 182.25 108.385H156.416C156.249 108.385 156.083 108.368 155.933 108.352C154.183 108.135 152.816 106.702 152.683 104.935C152.666 104.835 152.666 104.735 152.666 104.635V85.4678C152.666 83.4011 154.349 81.7177 156.416 81.7177H182.25C184.317 81.7177 186 83.4011 186 85.4678Z" fill="#E2E3E4"/>
<path d="M164.333 90.0513C164.333 91.8922 162.84 93.3848 160.999 93.3848C159.158 93.3848 157.666 91.8922 157.666 90.0513C157.666 88.2105 159.158 86.7178 160.999 86.7178C162.84 86.7178 164.333 88.2105 164.333 90.0513Z" fill="#CDCECF"/>
<path d="M186 99.9515V104.635C186 106.702 184.317 108.385 182.25 108.385H156.416C156.249 108.385 156.083 108.368 155.932 108.352L173.1 91.1848C174.233 90.0513 176.1 90.0513 177.233 91.1848L186 99.9515Z" fill="#CDCECF"/>
<path d="M176.1 108.385H156.416C156.249 108.385 156.083 108.368 155.933 108.352C154.183 108.135 152.816 106.702 152.683 104.935L160.599 97.018C161.733 95.8849 163.599 95.8849 164.733 97.018L176.1 108.385Z" fill="#CDCECF"/>
</g>
<defs>
<clipPath id="clip0_22_800">
<rect width="40" height="40" fill="white" transform="translate(146 80)"/>
</clipPath>
</defs>
</svg>
